Coordinates
version=1
nRows=65
nColumns=12
inDegrees=yes

Units are S.I. units (second, meters, Newtons, ...)
Angles are in degrees

endheader
time	SC_y	SC_z	SC_x	AC_y	AC_z	AC_x	GH_y	GH_z	GH_yy	EL_x	PS_y
       0.0               -44.4          32.91          83.58          44.06         -4.461         -2.449         -104.3          36.57          115.1          73.31          131.6
   0.01231               -44.4          32.91          83.58          44.06         -4.463         -2.446         -104.3          36.58          115.1          73.31          131.6
   0.02461               -44.4          32.91          83.57          44.06         -4.466         -2.444         -104.3          36.58          115.1           73.3          131.6
   0.03692               -44.4          32.91          83.57          44.07         -4.468         -2.441         -104.3          36.58          115.0           73.3          131.6
   0.04923               -44.4           32.9          83.57          44.07         -4.471         -2.438         -104.3          36.59          115.0           73.3          131.6
   0.06153               -44.4           32.9          83.56          44.08         -4.474         -2.435         -104.2          36.59          114.9           73.3          131.6
   0.07384               -44.4           32.9          83.56          44.08         -4.477         -2.432         -104.2           36.6          114.9          73.29          131.6
   0.08615               -44.4           32.9          83.55          44.09          -4.48         -2.428         -104.2           36.6          114.9          73.29          131.6
   0.09845               -44.4           32.9          83.55          44.09         -4.484         -2.424         -104.2          36.61          114.8          73.29          131.6
    0.1108              -44.39          32.89          83.54           44.1         -4.487          -2.42         -104.1          36.61          114.8          73.29          131.6
    0.1231              -44.39          32.89          83.53           44.1         -4.491         -2.416         -104.1          36.62          114.7          73.28          131.6
    0.1354              -44.39          32.89          83.53          44.11         -4.496         -2.411         -104.1          36.62          114.6          73.28          131.6
    0.1477              -44.39          32.88          83.52          44.12           -4.5         -2.406         -104.0          36.63          114.6          73.27          131.6
      0.16              -44.39          32.88          83.51          44.13         -4.506           -2.4         -104.0          36.64          114.5          73.27          131.6
    0.1723              -44.39          32.88          83.51          44.14         -4.511         -2.394         -104.0          36.65          114.4          73.26          131.6
    0.1846              -44.38          32.87           83.5          44.14         -4.517         -2.388         -103.9          36.66          114.3          73.26          131.6
    0.1969              -44.38          32.87          83.49          44.15         -4.523         -2.381         -103.9          36.66          114.2          73.25          131.6
    0.2092              -44.38          32.86          83.48          44.17          -4.53         -2.373         -103.8          36.68          114.1          73.25          131.6
    0.2215              -44.38          32.86          83.46          44.18         -4.538         -2.365         -103.8          36.69          114.0          73.24          131.6
    0.2338              -44.37          32.85          83.45          44.19         -4.547         -2.356         -103.7           36.7          113.9          73.23          131.6
    0.2461              -44.37          32.85          83.44          44.21         -4.556         -2.346         -103.6          36.71          113.8          73.23          131.6
    0.2584              -44.37          32.84          83.42          44.22         -4.566         -2.335         -103.6          36.73          113.6          73.22          131.5
    0.2707              -44.36          32.83          83.41          44.24         -4.577         -2.322         -103.5          36.74          113.5          73.21          131.5
    0.2831              -44.36          32.82          83.39          44.26          -4.59         -2.309         -103.4          36.76          113.3           73.2          131.5
    0.2954              -44.35          32.81          83.37          44.28         -4.604         -2.294         -103.3          36.78          113.1          73.19          131.5
    0.3077              -44.35           32.8          83.34          44.31         -4.619         -2.277         -103.2           36.8          112.9          73.17          131.5
      0.32              -44.34          32.79          83.32          44.33         -4.636         -2.258         -103.1          36.83          112.6          73.16          131.5
    0.3323              -44.34          32.78          83.29          44.36         -4.656         -2.237         -102.9          36.86          112.3          73.14          131.5
    0.3446              -44.33          32.77          83.26           44.4         -4.678         -2.213         -102.8          36.89          112.0          73.12          131.4
    0.3569              -44.32          32.75          83.22          44.44         -4.703         -2.186         -102.6          36.93          111.7           73.1          131.4
    0.3692              -44.31          32.73          83.18          44.48         -4.731         -2.155         -102.4          36.97          111.3          73.08          131.4
    0.3815               -44.3          32.71          83.13          44.54         -4.764         -2.119         -102.1          37.02          110.8          73.05          131.3
    0.3938              -44.29          32.68          83.07           44.6         -4.802         -2.078         -101.9          37.07          110.3          73.02          131.3
    0.4061              -44.27          32.65          83.01          44.67         -4.846          -2.03         -101.5          37.14          109.6          72.98          131.3
    0.4184              -44.25          32.62          82.93          44.75         -4.897         -1.974         -101.2          37.21          108.9          72.93          131.2
    0.4307              -44.23          32.58          82.84          44.84         -4.958         -1.908         -100.7           37.3          108.0          72.88          131.2
     0.443              -44.21          32.53          82.73          44.96         -5.029          -1.83         -100.2          37.41          107.0          72.82          131.1
    0.4554              -44.18          32.47           82.6           45.1         -5.116         -1.736         -99.57          37.53          105.8          72.75          131.0
    0.4677              -44.14           32.4          82.45          45.26          -5.22         -1.622         -98.81          37.68          104.3          72.66          130.9
      0.48              -44.09          32.32          82.26          45.46         -5.348         -1.484         -97.89          37.87          102.5          72.55          130.8
    0.4923              -44.04          32.21          82.02          45.71         -5.505         -1.312         -96.75           38.1          100.2          72.41          130.6
    0.5046              -43.97          32.08          81.73          46.02         -5.701         -1.099         -95.32          38.39          97.43          72.24          130.4
    0.5169              -43.89          31.91          81.36          46.42         -5.948        -0.8296         -93.53          38.75           93.9          72.03          130.2
    0.5292              -43.78           31.7           80.9          46.92         -6.262        -0.4876         -91.25          39.21          89.41          71.76          129.8
    0.5415              -43.64          31.43           80.3          47.55         -6.664       -0.04978         -88.32           39.8          83.67          71.42          129.4
    0.5538              -43.46          31.08          79.53          48.37          -7.18          0.512         -84.58          40.55          76.31          70.98          128.9
    0.5661              -43.23          30.64          78.55          49.42         -7.839           1.23         -79.79          41.52           66.9          70.41          128.3
    0.5784              -42.94          30.09          77.31          50.74         -8.668          2.132         -73.77          42.73          55.06           69.7          127.4
    0.5907              -42.58          29.41          75.81          52.34         -9.678          3.232         -66.44          44.21          40.65          68.83          126.4
     0.603              -42.17          28.62          74.06           54.2         -10.85          4.506         -57.94          45.92          23.93          67.83          125.3
    0.6153              -41.73          27.77          72.18          56.21         -12.12          5.886         -48.73          47.77          5.837          66.74          124.0
    0.6276              -41.29          26.92          70.29          58.22         -13.38          7.267         -39.52          49.63         -12.26          65.66          122.7
      0.64              -40.88          26.13          68.54          60.08         -14.55          8.541         -31.02          51.34         -28.97          64.65          121.6
    0.6523              -40.53          25.46          67.04          61.69         -15.56          9.641         -23.69          52.82         -43.39          63.79          120.6
    0.6646              -40.24           24.9          65.81           63.0         -16.39          10.54         -17.67          54.03         -55.22          63.07          119.7
    0.6769              -40.01          24.46          64.82          64.05         -17.05          11.26         -12.88           55.0         -64.63          62.51          119.1
    0.6892              -39.83          24.11          64.06          64.87         -17.57          11.82         -9.136          55.75          -72.0          62.07          118.6
    0.7015              -39.69          23.84          63.46          65.51         -17.97          12.26         -6.216          56.34         -77.74          61.72          118.2
    0.7138              -39.58          23.63          62.99           66.0         -18.28           12.6         -3.934           56.8         -82.22          61.45          117.8
    0.7261              -39.49          23.46          62.62           66.4         -18.53          12.87          -2.14          57.16         -85.75          61.24          117.6
    0.7384              -39.43          23.33          62.33          66.71         -18.73          13.09         -0.715          57.45         -88.55          61.07          117.4
    0.7507              -39.37          23.23          62.09          66.96         -18.88          13.26         0.4274          57.68          -90.8          60.94          117.2
     0.763              -39.33          23.14           61.9          67.16         -19.01           13.4          1.353          57.86         -92.62          60.83          117.1
    0.7753              -39.29          23.07          61.75          67.33         -19.12          13.51          2.111          58.02         -94.11          60.74          117.0
    0.7876              -39.26          23.01          61.62          67.46          -19.2           13.6          2.737          58.14         -95.34          60.66          116.9
